<?xml version="1.0" encoding="UTF-8" standalone="no"?>
<!-- Created with Inkscape (http://www.inkscape.org/) -->

<svg
   width="288"
   height="16"
   viewBox="0 0 288 16"
   version="1.1"
   id="svg1"
   inkscape:version="1.3.2 (091e20e, 2023-11-25, custom)"
   sodipodi:docname="icons.svg"
   xml:space="preserve"
   inkscape:export-filename="line1.png"
   inkscape:export-xdpi="1536"
   inkscape:export-ydpi="1536"
   xmlns:inkscape="http://www.inkscape.org/namespaces/inkscape"
   xmlns:sodipodi="http://sodipodi.sourceforge.net/DTD/sodipodi-0.dtd"
   xmlns="http://www.w3.org/2000/svg"
   xmlns:svg="http://www.w3.org/2000/svg"><sodipodi:namedview
     id="namedview1"
     pagecolor="#ffffff"
     bordercolor="#000000"
     borderopacity="0.25"
     inkscape:showpageshadow="2"
     inkscape:pageopacity="0.0"
     inkscape:pagecheckerboard="0"
     inkscape:deskcolor="#d1d1d1"
     inkscape:document-units="px"
     inkscape:zoom="1"
     inkscape:cx="97"
     inkscape:cy="-163"
     inkscape:window-width="1920"
     inkscape:window-height="1009"
     inkscape:window-x="-8"
     inkscape:window-y="-8"
     inkscape:window-maximized="1"
     inkscape:current-layer="layer1"
     showgrid="true"><inkscape:grid
       id="grid1"
       units="px"
       originx="0"
       originy="0"
       spacingx="0.5"
       spacingy="0.5"
       empcolor="#0099e5"
       empopacity="0.60392157"
       color="#0099e5"
       opacity="0.14901961"
       empspacing="2"
       dotted="false"
       gridanglex="30"
       gridanglez="30"
       visible="true" /></sodipodi:namedview><defs
     id="defs1" /><g
     inkscape:label="Layer 1"
     inkscape:groupmode="layer"
     id="layer1"><path
       style="fill:#e6e6e6;fill-opacity:1;stroke:#000000;stroke-width:1;stroke-dasharray:none;stroke-opacity:1"
       d="m 0.5,2.5 h 15 v 11 h -15 z"
       id="path2" /><path
       style="fill:#00ffff;fill-opacity:1;stroke:#000000;stroke-width:1;stroke-dasharray:none;stroke-opacity:1"
       d="m 0.5,2.5 v 2 h 15 v -2 z"
       id="path3" /><path
       style="fill:#f9f9f9;fill-opacity:1;stroke:#000000;stroke-width:1;stroke-dasharray:none;stroke-opacity:1"
       d="m 18.5,1.5 h 8 l 3,3 v 10 h -11 z"
       id="path4" /><path
       style="fill:#f9f9f9;fill-opacity:0.165803;stroke:#000000;stroke-width:1;stroke-dasharray:none;stroke-opacity:1;stroke-linejoin:bevel;stroke-linecap:butt"
       d="m 26.5,1.5 v 3 h 3 z"
       id="path5" /><path
       style="fill:#f9f9f9;fill-opacity:1;stroke:#000000;stroke-width:1;stroke-dasharray:none;stroke-opacity:1"
       d="m 34.5,1.5 h 8 l 3,3 v 10 h -11 z"
       id="path4-8" /><path
       style="fill:#f9f9f9;fill-opacity:0.165803;stroke:#000000;stroke-width:1;stroke-linecap:butt;stroke-linejoin:bevel;stroke-dasharray:none;stroke-opacity:1"
       d="m 42.5,1.5 v 3 h 3 z"
       id="path5-6" /><path
       style="fill:#f9f9f9;fill-opacity:0.165803;stroke:#000000;stroke-width:1;stroke-linecap:butt;stroke-linejoin:bevel;stroke-dasharray:none;stroke-opacity:1"
       d="m 21,5.5 h 4"
       id="path6" /><path
       style="fill:#f9f9f9;fill-opacity:0.165803;stroke:#000000;stroke-width:1;stroke-linecap:butt;stroke-linejoin:bevel;stroke-dasharray:none;stroke-opacity:1"
       d="m 21,7.5 h 6"
       id="path8" /><path
       style="fill:#f9f9f9;fill-opacity:0.165803;stroke:#000000;stroke-width:1;stroke-linecap:butt;stroke-linejoin:bevel;stroke-dasharray:none;stroke-opacity:1"
       d="M 27,9.5 H 21"
       id="path9" /><path
       style="fill:#f9f9f9;fill-opacity:0.165803;stroke:#000000;stroke-width:1;stroke-linecap:butt;stroke-linejoin:bevel;stroke-dasharray:none;stroke-opacity:1"
       d="m 21,11.5 h 6"
       id="path10" /><path
       style="fill:#f9f9f9;fill-opacity:1;stroke:#000000;stroke-width:1;stroke-dasharray:none;stroke-opacity:1"
       d="m 50.5,1.5 h 8 l 3,3 v 10 h -11 z"
       id="path4-87" /><path
       style="fill:#f9f9f9;fill-opacity:0.165803;stroke:#000000;stroke-width:1;stroke-linecap:butt;stroke-linejoin:bevel;stroke-dasharray:none;stroke-opacity:1"
       d="m 58.5,1.5 v 3 h 3 z"
       id="path5-64" /><path
       style="fill:#f9f9f9;fill-opacity:1;stroke:#ff0000;stroke-width:2;stroke-linecap:butt;stroke-linejoin:bevel;stroke-dasharray:none;stroke-opacity:1"
       d="m 56,5 v 5"
       id="path11" /><path
       style="fill:#ff0000;fill-opacity:1;stroke:#ff0000;stroke-width:2;stroke-linecap:butt;stroke-linejoin:bevel;stroke-dasharray:none;stroke-opacity:1"
       d="m 56,11 v 2"
       id="path12" /><path
       style="fill:#00ffff;fill-opacity:1;stroke:#000000;stroke-width:1;stroke-linecap:butt;stroke-linejoin:miter;stroke-dasharray:none;stroke-opacity:1"
       d="m 67.5,2.5 3,3 v 1 h -2 v 3 h 2 l 1,1 v 1 h -4 l -1,-1 v -4 h -2 v -1 z"
       id="path13" /><circle
       style="fill:#00ffff;fill-opacity:1;stroke:#000000;stroke-width:1;stroke-linecap:butt;stroke-linejoin:miter;stroke-dasharray:none;stroke-opacity:1"
       id="path14"
       cx="74.5"
       cy="10.5"
       r="1" /><path
       style="fill:#fff6d5;stroke:#000000;stroke-width:1.00157;stroke-opacity:1;fill-opacity:1"
       d="M 83.5,5.5 V 4.46875 l 1,-1 4,0.03125 0.96875,0.96875 v 1.125"
       id="path2027" /><path
       style="fill:#fff6d5;fill-opacity:1;stroke:#000000;stroke-width:1.00157;stroke-opacity:1"
       d="m 99.484375,5.5012041 v -1.03125 l 1.000005,-1 4,0.03125 0.96875,0.96875 v 1.125"
       id="path2027-4" /><path
       style="fill:#fff6d5;fill-opacity:1;stroke:#000000;stroke-width:1.00157;stroke-opacity:1"
       d="m 162.52281,5.4916238 v -1.03125 l 1,-1 4,0.03125 0.96875,0.96875 v 1.125"
       id="path2027-4-3" /><path
       style="fill:#fff6d5;fill-opacity:1;stroke:#000000;stroke-width:1.00157;stroke-opacity:1"
       d="m 179.51548,5.506789 v -1.03125 l 1,-1 4,0.03125 0.96875,0.96875 v 1.125"
       id="path2027-4-3-2" /><path
       style="fill:#fff6d5;fill-opacity:1;stroke:#000000;stroke-width:1.00157;stroke-opacity:1"
       d="m 243.51563,5.4699541 v -1.03125 l 1,-1 4,0.03125 0.96875,0.96875 v 1.125"
       id="path2027-4-3-2-4" /><circle
       style="fill:#00ffff;fill-opacity:1;stroke:#000000;stroke-width:1;stroke-linecap:butt;stroke-linejoin:miter;stroke-dasharray:none;stroke-opacity:1"
       id="path15"
       cx="78.5"
       cy="10.5"
       r="1" /><rect
       style="fill:#fff6d5;fill-opacity:1;stroke:#000000;stroke-width:1;stroke-linecap:butt;stroke-linejoin:miter;stroke-dasharray:none;stroke-opacity:1"
       id="rect15"
       width="13"
       height="8"
       x="82.5"
       y="5.5" /><rect
       style="fill:#fff6d5;fill-opacity:1;stroke:#000000;stroke-width:1;stroke-linecap:butt;stroke-linejoin:miter;stroke-dasharray:none;stroke-opacity:1"
       id="rect15-6"
       width="13"
       height="8"
       x="98.5"
       y="5.5" /><path
       style="fill:#fff6d5;fill-opacity:0.194139;stroke:#000000;stroke-width:1;stroke-linecap:butt;stroke-linejoin:miter;stroke-dasharray:none;stroke-opacity:1"
       d="m 104.5,7 v 5"
       id="path17" /><path
       style="fill:#fff6d5;fill-opacity:0.194139;stroke:#000000;stroke-width:1;stroke-linecap:butt;stroke-linejoin:miter;stroke-dasharray:none;stroke-opacity:1"
       d="m 102,9.5 h 5"
       id="path18" /><rect
       style="fill:#fff6d5;fill-opacity:1;stroke:#000000;stroke-width:1;stroke-linecap:butt;stroke-linejoin:miter;stroke-dasharray:none;stroke-opacity:1"
       id="rect15-6-2"
       width="13"
       height="8"
       x="161.5"
       y="5.5" /><path
       style="fill:#cccccc;fill-opacity:1;stroke:#000000;stroke-width:1.00157;stroke-opacity:1"
       d="m 113.51274,13.523417 -0.0442,-7.9991453 2.03293,-2.0771261 3.99958,0.022097 1.4805,1.5467961 h 3.53553 v 2.4969709"
       id="path2317" /><path
       style="fill:#cccccc;fill-opacity:1;stroke:#000000;stroke-width:1.00157;stroke-opacity:1"
       d="m 129.4895,13.507843 -0.0442,-7.999145 2.03293,-2.0771261 3.99958,0.022097 1.4805,1.5467961 h 3.53553 v 2.4969709"
       id="path2317-6" /><path
       style="fill:#cccccc;fill-opacity:1;stroke:#000000;stroke-width:1.00157;stroke-opacity:1"
       d="m 193.50476,13.552037 -0.0442,-7.9991445 2.03293,-2.0771261 3.99958,0.022097 1.4805,1.5467961 h 3.53553 v 2.4969709"
       id="path2317-6-7" /><path
       style="fill:#cccccc;fill-opacity:1;stroke:#000000;stroke-width:1.00157;stroke-opacity:1"
       d="m 257.48119,13.533731 -0.0442,-7.9991441 2.03293,-2.0771261 3.99958,0.022097 1.4805,1.5467961 h 3.53553 v 2.4969709"
       id="path2317-6-7-2" /><path
       style="fill:#cccccc;fill-opacity:1;stroke:#000000;stroke-width:1.00157;stroke-opacity:1"
       d="m 145.4878,13.552038 -0.0442,-7.9991456 2.03293,-2.0771261 3.99958,0.022097 1.4805,1.5467961 h 3.53553 v 2.4969709"
       id="path2317-6-9" /><rect
       style="fill:#fff6d5;fill-opacity:1;stroke:#000000;stroke-width:1;stroke-linecap:butt;stroke-linejoin:miter;stroke-dasharray:none;stroke-opacity:1"
       id="rect15-6-2-1"
       width="13"
       height="8"
       x="178.5"
       y="5.5" /><path
       style="fill:#fff6d5;fill-opacity:0.194139;stroke:#000000;stroke-width:1;stroke-linecap:butt;stroke-linejoin:miter;stroke-dasharray:none;stroke-opacity:1"
       d="m 165,9.5 h 5"
       id="path18-7" /><path
       style="fill:#fff6d5;fill-opacity:1;stroke:#000000;stroke-width:1;stroke-linecap:butt;stroke-linejoin:round;stroke-dasharray:none;stroke-opacity:1"
       d="m 113.5,13.5 4,-6 h 10 l -4,6 z"
       id="path19" /><path
       style="fill:#fff6d5;fill-opacity:1;stroke:#000000;stroke-width:1;stroke-linecap:butt;stroke-linejoin:round;stroke-dasharray:none;stroke-opacity:1"
       d="m 129.5,13.5 4,-6 h 10 l -4,6 z"
       id="path19-4" /><path
       style="fill:#fff6d5;fill-opacity:0.194139;stroke:#000000;stroke-width:1;stroke-linecap:butt;stroke-linejoin:miter;stroke-dasharray:none;stroke-opacity:1"
       d="m 136.5,8 v 5"
       id="path17-2" /><path
       style="fill:#fff6d5;fill-opacity:0.194139;stroke:#000000;stroke-width:1;stroke-linecap:butt;stroke-linejoin:miter;stroke-dasharray:none;stroke-opacity:1"
       d="m 134,10.5 h 5"
       id="path18-3" /><path
       style="fill:#fff6d5;fill-opacity:1;stroke:#000000;stroke-width:1;stroke-linecap:butt;stroke-linejoin:round;stroke-dasharray:none;stroke-opacity:1"
       d="m 145.5,13.5 4,-6 h 10 l -4,6 z"
       id="path19-4-7" /><path
       style="fill:#fff6d5;fill-opacity:1;stroke:#000000;stroke-width:1;stroke-linecap:butt;stroke-linejoin:round;stroke-dasharray:none;stroke-opacity:1"
       d="m 193.5,13.5 4,-6 h 10 l -4,6 z"
       id="path19-4-7-5" /><path
       style="fill:#fff6d5;fill-opacity:0.194139;stroke:#000000;stroke-width:1;stroke-linecap:butt;stroke-linejoin:miter;stroke-dasharray:none;stroke-opacity:1"
       d="m 150,10.5 h 5"
       id="path18-3-0" /><path
       style="fill:#ffffff;fill-opacity:1;stroke:#000000;stroke-width:1;stroke-linecap:butt;stroke-linejoin:round;stroke-dasharray:none;stroke-opacity:1"
       d="m 177.5,14.5 h 10 v -1 l -1,-1 h -5 l 1.99421,-2 v -1 h -3.0052 l -2.98901,3 z"
       id="path21" /><rect
       style="fill:#000080;fill-opacity:1;stroke:#000080;stroke-width:1;stroke-linecap:butt;stroke-linejoin:miter;stroke-dasharray:none;stroke-opacity:1"
       id="rect21"
       width="1.0768577"
       height="5"
       x="176.42314"
       y="10.5" /><path
       style="fill:#ffffff;fill-opacity:1;stroke:#000000;stroke-width:1;stroke-linecap:butt;stroke-linejoin:round;stroke-dasharray:none;stroke-opacity:1"
       d="m 193.5,14.5 h 10 v -1 l -1,-1 h -5 l 1.99421,-2 v -1 h -3.0052 l -2.98901,3 z"
       id="path21-3" /><rect
       style="fill:#000080;fill-opacity:1;stroke:#000080;stroke-width:1;stroke-linecap:butt;stroke-linejoin:miter;stroke-dasharray:none;stroke-opacity:1"
       id="rect21-9"
       width="1.0768577"
       height="5"
       x="192.42314"
       y="10.5" /><path
       style="fill:#00ffff;fill-opacity:1;stroke:#000000;stroke-width:1;stroke-linecap:butt;stroke-linejoin:miter;stroke-dasharray:none;stroke-opacity:1"
       id="path22-7"
       sodipodi:type="arc"
       sodipodi:cx="216"
       sodipodi:cy="-16"
       sodipodi:rx="4.5"
       sodipodi:ry="4.5"
       sodipodi:start="0"
       sodipodi:end="3.1415927"
       sodipodi:arc-type="arc"
       d="m 220.5,-16 a 4.5,4.5 0 0 1 -2.25,3.897114 4.5,4.5 0 0 1 -4.5,0 A 4.5,4.5 0 0 1 211.5,-16"
       sodipodi:open="true"
       transform="scale(1,-1)" /><circle
       style="fill:#e6e6e6;fill-opacity:1;stroke:#000000;stroke-width:1;stroke-linecap:butt;stroke-linejoin:miter;stroke-dasharray:none;stroke-opacity:1"
       id="path22"
       cx="215.99995"
       cy="6.5"
       r="5.5" /><circle
       style="fill:#00ffff;fill-opacity:1;stroke:#000000;stroke-width:1;stroke-linecap:butt;stroke-linejoin:miter;stroke-dasharray:none;stroke-opacity:1"
       id="path23"
       cx="214.5"
       cy="5.5"
       r="0.5" /><circle
       style="fill:#00ffff;fill-opacity:1;stroke:#000000;stroke-width:1;stroke-linecap:butt;stroke-linejoin:miter;stroke-dasharray:none;stroke-opacity:1"
       id="path23-0"
       cx="217.54688"
       cy="5.5"
       r="0.5" /><path
       style="fill:#cccccc;fill-opacity:1;stroke:#000000;stroke-width:1;stroke-linecap:butt;stroke-linejoin:round;stroke-dasharray:none;stroke-opacity:1"
       d="m 224.5,9.5 h 15 v 5 h -15 z"
       id="path24" /><path
       style="fill:none;fill-opacity:1;stroke:#000000;stroke-width:1;stroke-linecap:butt;stroke-linejoin:miter;stroke-dasharray:none;stroke-opacity:1"
       d="m 234,11.5 h 3"
       id="path25" /><path
       style="fill:#cccccc;fill-opacity:1;stroke:#000000;stroke-width:1;stroke-linecap:butt;stroke-linejoin:miter;stroke-dasharray:none;stroke-opacity:1"
       d="m 226.5,0.5 h 10.90625 l 0.0937,9 h -11 z"
       id="path26" /><path
       style="fill:#0000ff;fill-opacity:1;stroke:none;stroke-width:1;stroke-linecap:butt;stroke-linejoin:miter;stroke-dasharray:none;stroke-opacity:1"
       d="m 227.99999,2 h 8 v 6 h -8 z"
       id="path27" /><path
       style="fill:none;fill-opacity:1;stroke:#000080;stroke-width:1;stroke-linecap:butt;stroke-linejoin:miter;stroke-dasharray:none;stroke-opacity:1"
       d="M 235.99999,2.5 H 228.5 l 0.0156,5.5"
       id="path34"
       sodipodi:nodetypes="ccc" /><path
       style="fill:none;fill-opacity:1;stroke:#ffffff;stroke-width:1;stroke-linecap:butt;stroke-linejoin:miter;stroke-dasharray:none;stroke-opacity:1"
       d="m 229,7.5 h 6.5 V 3"
       id="path35"
       sodipodi:nodetypes="ccc" /><rect
       style="fill:#fff6d5;fill-opacity:1;stroke:#000000;stroke-width:1;stroke-linecap:butt;stroke-linejoin:miter;stroke-dasharray:none;stroke-opacity:1"
       id="rect15-6-2-3"
       width="13"
       height="8"
       x="242.5"
       y="5.5" /><path
       d="m 254.3543,7.292838 q 0.25111,0.248007 0.3737,0.5617482 0.12555,0.3137424 0.12555,0.6454138 0,0.3316703 -0.12555,0.6454128 -0.12259,0.3107548 -0.37072,0.5587608 l -0.86397,0.8605514 q -0.22123,0.224101 -0.51121,0.349598 -0.47832,0.215138 -0.99552,0.122509 -0.24813,-0.04183 -0.48132,-0.158365 -0.23317,-0.119521 -0.4275,-0.313742 -0.26009,-0.259958 -0.38865,-0.6065694 l 0.23319,-0.2330658 q 0.16444,-0.1643414 0.40659,-0.1972096 0.0507,0.3047784 0.26607,0.5229038 0.16441,0.161354 0.37368,0.230078 0.20927,0.06574 0.42153,0.04482 0.15845,-0.01793 0.31092,-0.08366 0.15246,-0.06872 0.27503,-0.191233 l 0.86098,-0.8635393 q 0.19134,-0.1882465 0.25411,-0.4362522 0.0628,-0.2509937 -0.004,-0.4989994 -0.0628,-0.250995 -0.25113,-0.4422279 -0.18834,-0.1912342 -0.43946,-0.2539817 -0.24812,-0.062748 -0.49925,0 -0.24813,0.062748 -0.43947,0.2539817 l -0.52315,0.5199165 v -0.012 q -0.0838,-0.020916 -0.16742,-0.035856 -0.41555,-0.0747 -0.8281,0.026892 0.0658,-0.080675 0.13751,-0.1553772 l 0.86099,-0.8605508 q 0.25138,-0.2509948 0.56228,-0.3735031 0.31391,-0.1254975 0.64575,-0.1254975 0.33184,0 0.64274,0.1254975 0.31392,0.1225083 0.56502,0.3735031 z m -1.72497,4.138414 -0.86099,0.863539 q -0.24812,0.248006 -0.56202,0.373503 -0.3139,0.125497 -0.64574,0.125497 -0.33185,0 -0.64575,-0.125497 -0.31091,-0.125497 -0.56204,-0.373503 -0.24812,-0.250994 -0.37368,-0.561749 -0.12556,-0.313742 -0.12556,-0.645413 0,-0.334659 0.12556,-0.645413 0.12556,-0.313743 0.37368,-0.561749 l 0.86399,-0.8635385 q 0.22123,-0.2211139 0.51121,-0.3495993 0.48131,-0.2151379 0.99252,-0.1225095 0.25112,0.044819 0.48132,0.1643424 0.23318,0.1165311 0.4275,0.3077664 0.2601,0.2629456 0.38865,0.6095565 l -0.23319,0.2330659 q -0.16143,0.1613531 -0.40657,0.1942211 -0.0508,-0.30179 -0.26609,-0.5199158 -0.16141,-0.1613533 -0.37368,-0.2300779 -0.20928,-0.068724 -0.41853,-0.044821 -0.16144,0.017927 -0.3139,0.086653 -0.14948,0.065737 -0.27504,0.1882456 l -0.86099,0.8635391 q -0.19134,0.188245 -0.25411,0.439239 -0.0628,0.248006 0,0.499 0.0628,0.248007 0.25411,0.43924 0.19134,0.191234 0.43946,0.253982 0.25113,0.06275 0.49926,0 0.25111,-0.06275 0.43946,-0.253982 l 0.51421,-0.510952 q 0.0867,0.0239 0.17637,0.03884 v 0 q 0.42152,0.07171 0.8311,-0.02988 -0.0628,0.08366 -0.14052,0.158366 z"
       id="text36"
       style="fill:#0000ff;stroke-width:1"
       aria-label="🔗" /><path
       style="fill:#fff6d5;fill-opacity:1;stroke:#000000;stroke-width:1;stroke-linecap:butt;stroke-linejoin:round;stroke-dasharray:none;stroke-opacity:1"
       d="m 257.5,13.5 4,-6 h 10 l -4,6 z"
       id="path19-4-7-9" /><path
       d="m 268.45467,8.5533125 q 0.20926,0.2066729 0.31142,0.4681243 0.10462,0.2614525 0.10462,0.5378459 0,0.2763925 -0.10462,0.5378453 -0.10213,0.258963 -0.30894,0.465635 l -0.71998,0.717126 q -0.18435,0.186752 -0.426,0.291333 -0.3986,0.179282 -0.8296,0.102088 -0.20678,-0.03486 -0.4011,-0.131972 -0.19431,-0.0996 -0.35625,-0.261452 -0.21675,-0.216632 -0.32388,-0.505475 l 0.19433,-0.194222 q 0.13702,-0.136952 0.33882,-0.164342 0.0423,0.253983 0.22173,0.435754 0.137,0.134462 0.3114,0.191732 0.17439,0.05478 0.35128,0.03735 0.13203,-0.01494 0.2591,-0.06972 0.12705,-0.05727 0.22918,-0.159361 l 0.71749,-0.719614 q 0.15945,-0.1568725 0.21175,-0.3635443 0.0524,-0.2091619 -0.004,-0.4158337 -0.0524,-0.2091629 -0.20927,-0.3685238 -0.15695,-0.1593623 -0.36623,-0.2116518 -0.20676,-0.05229 -0.41604,0 -0.20677,0.05229 -0.36622,0.2116518 l -0.43597,0.4332646 v -0.01 q -0.0699,-0.01743 -0.13951,-0.02988 -0.34629,-0.06225 -0.69009,0.02241 0.0549,-0.067229 0.11463,-0.1294811 l 0.71749,-0.717127 q 0.20949,-0.2091628 0.46856,-0.3112532 0.2616,-0.1045814 0.53813,-0.1045814 0.27654,0 0.53562,0.1045814 0.2616,0.1020901 0.47085,0.3112532 z m -1.43747,3.4486835 -0.71751,0.719618 q -0.20676,0.206673 -0.46835,0.311253 -0.26157,0.104575 -0.53811,0.104575 -0.27654,0 -0.53813,-0.104575 -0.25909,-0.104575 -0.46836,-0.311253 -0.20678,-0.209162 -0.3114,-0.468125 -0.10463,-0.261453 -0.10463,-0.537845 0,-0.278883 0.10463,-0.537845 0.10462,-0.261453 0.3114,-0.468125 l 0.71999,-0.7196167 q 0.18436,-0.184262 0.42601,-0.2913333 0.40109,-0.179282 0.8271,-0.1020914 0.20927,0.037349 0.40111,0.1369523 0.19431,0.097109 0.35625,0.2564725 0.21675,0.2191216 0.32387,0.5079646 l -0.19432,0.194222 q -0.13453,0.134461 -0.33882,0.161851 -0.0424,-0.251492 -0.22173,-0.433264 -0.13452,-0.134461 -0.31141,-0.191732 -0.1744,-0.05727 -0.34877,-0.03735 -0.13454,0.01494 -0.26159,0.07221 -0.1245,0.05478 -0.2292,0.156872 l -0.71749,0.719617 q -0.15945,0.15687 -0.21176,0.366033 -0.0524,0.206671 0,0.415834 0.0524,0.206673 0.21176,0.366033 0.15945,0.159363 0.36621,0.211653 0.20928,0.05229 0.41605,0 0.20927,-0.05229 0.36622,-0.211653 l 0.42851,-0.425793 q 0.0722,0.01991 0.14698,0.03236 v 0 q 0.35126,0.05976 0.69259,-0.0249 -0.0524,0.06971 -0.11713,0.131972 z"
       id="text36-5"
       style="fill:#0000ff;stroke-width:0.999995"
       aria-label="🔗" /><path
       style="fill:#f9f9f9;fill-opacity:1;stroke:#000000;stroke-width:1;stroke-dasharray:none;stroke-opacity:1"
       d="m 274.5,1.5 h 8 l 3,3 v 10 h -11 z"
       id="path4-8-8" /><path
       style="fill:#f9f9f9;fill-opacity:0.165803;stroke:#000000;stroke-width:1;stroke-linecap:butt;stroke-linejoin:bevel;stroke-dasharray:none;stroke-opacity:1"
       d="m 282.5,1.5 v 3 h 3 z"
       id="path5-6-2" /><path
       d="m 283.84828,7.9472277 q 0.25111,0.248007 0.3737,0.5617482 0.12555,0.3137424 0.12555,0.6454138 0,0.3316703 -0.12555,0.6454128 -0.12259,0.3107545 -0.37072,0.5587605 l -0.86397,0.860552 q -0.22123,0.224101 -0.51121,0.349598 -0.47832,0.215138 -0.99552,0.122509 -0.24813,-0.04183 -0.48132,-0.158365 -0.23317,-0.119521 -0.4275,-0.313742 -0.26009,-0.259958 -0.38865,-0.60657 l 0.23319,-0.233065 q 0.16444,-0.164342 0.40659,-0.19721 0.0507,0.304778 0.26607,0.522904 0.16441,0.161354 0.37368,0.230078 0.20927,0.06574 0.42153,0.04482 0.15845,-0.01793 0.31092,-0.08366 0.15246,-0.06872 0.27503,-0.191233 l 0.86098,-0.8635396 q 0.19134,-0.1882465 0.25411,-0.4362522 0.0628,-0.2509937 -0.004,-0.4989994 -0.0628,-0.250995 -0.25113,-0.4422279 -0.18834,-0.1912342 -0.43946,-0.2539817 -0.24812,-0.062748 -0.49925,0 -0.24813,0.062748 -0.43947,0.2539817 l -0.52315,0.5199165 v -0.012 q -0.0838,-0.020916 -0.16742,-0.035856 -0.41555,-0.0747 -0.8281,0.026892 0.0658,-0.080675 0.13751,-0.1553772 l 0.86099,-0.8605508 q 0.25138,-0.2509948 0.56228,-0.3735031 0.31391,-0.1254975 0.64575,-0.1254975 0.33184,0 0.64274,0.1254975 0.31392,0.1225083 0.56502,0.3735031 z m -1.72497,4.1384143 -0.86099,0.863539 q -0.24812,0.248006 -0.56202,0.373503 -0.3139,0.125497 -0.64574,0.125497 -0.33185,0 -0.64575,-0.125497 -0.31091,-0.125497 -0.56204,-0.373503 -0.24812,-0.250994 -0.37368,-0.561749 -0.12556,-0.313742 -0.12556,-0.645413 0,-0.334659 0.12556,-0.645413 0.12556,-0.313743 0.37368,-0.561749 l 0.86399,-0.8635388 q 0.22123,-0.2211139 0.51121,-0.3495993 0.48131,-0.2151379 0.99252,-0.1225095 0.25112,0.044819 0.48132,0.1643424 0.23318,0.1165311 0.4275,0.3077664 0.2601,0.2629456 0.38865,0.6095568 l -0.23319,0.233066 q -0.16143,0.161353 -0.40657,0.194221 -0.0508,-0.30179 -0.26609,-0.519916 Q 281.4447,10.026893 281.23243,9.958168 281.02315,9.889444 280.8139,9.913347 280.65246,9.931274 280.5,10 q -0.14948,0.06574 -0.27504,0.188246 l -0.86099,0.863539 q -0.19134,0.188245 -0.25411,0.439239 -0.0628,0.248006 0,0.499 0.0628,0.248007 0.25411,0.43924 0.19134,0.191234 0.43946,0.253982 0.25113,0.06275 0.49926,0 0.25111,-0.06275 0.43946,-0.253982 l 0.51421,-0.510952 q 0.0867,0.0239 0.17637,0.03884 v 0 q 0.42152,0.07171 0.8311,-0.02988 -0.0628,0.08366 -0.14052,0.158366 z"
       id="text36-9"
       style="fill:#0000ff;stroke-width:1"
       aria-label="🔗" /></g></svg>
