<?xml version="1.0" encoding="UTF-8" standalone="no"?>
<!-- Created with Inkscape (http://www.inkscape.org/) -->

<svg
   width="16"
   height="16"
   viewBox="0 0 16 16"
   version="1.1"
   id="svg1"
   inkscape:version="1.4.3 (0d15f75, 2025-12-25)"
   sodipodi:docname="icon_17.svg"
   xml:space="preserve"
   inkscape:export-filename="icon_17.png"
   inkscape:export-xdpi="1536"
   inkscape:export-ydpi="1536"
   xmlns:inkscape="http://www.inkscape.org/namespaces/inkscape"
   xmlns:sodipodi="http://sodipodi.sourceforge.net/DTD/sodipodi-0.dtd"
   xmlns="http://www.w3.org/2000/svg"
   xmlns:svg="http://www.w3.org/2000/svg"><sodipodi:namedview
     id="namedview1"
     pagecolor="#ffffff"
     bordercolor="#000000"
     borderopacity="0.25"
     inkscape:showpageshadow="2"
     inkscape:pageopacity="0.0"
     inkscape:pagecheckerboard="0"
     inkscape:deskcolor="#d1d1d1"
     inkscape:document-units="px"
     inkscape:zoom="4"
     inkscape:cx="47.625"
     inkscape:cy="17.5"
     inkscape:window-width="1920"
     inkscape:window-height="1010"
     inkscape:window-x="-6"
     inkscape:window-y="-6"
     inkscape:window-maximized="1"
     inkscape:current-layer="layer1"
     showgrid="true"><inkscape:grid
       id="grid1"
       units="px"
       originx="0"
       originy="0"
       spacingx="0.5"
       spacingy="0.5"
       empcolor="#0099e5"
       empopacity="0.60392157"
       color="#0099e5"
       opacity="0.14901961"
       empspacing="2"
       dotted="false"
       gridanglex="30"
       gridanglez="30"
       visible="true" /></sodipodi:namedview><defs
     id="defs1" /><g
     inkscape:label="Layer 1"
     inkscape:groupmode="layer"
     id="layer1"><path
       style="fill:#f9f9f9;fill-opacity:1;stroke:#000000;stroke-width:1;stroke-dasharray:none;stroke-opacity:1"
       d="m 2.5,1.5 h 7.999997 l 3,3 v 10 H 2.5 Z"
       id="path4-8-8" /><path
       style="fill:#f9f9f9;fill-opacity:0.165803;stroke:#000000;stroke-width:1;stroke-linecap:butt;stroke-linejoin:bevel;stroke-dasharray:none;stroke-opacity:1"
       d="m 10.499997,1.5 v 3 h 3 z"
       id="path5-6-2" /><path
       d="m 11.848277,7.9472277 q 0.25111,0.248007 0.3737,0.5617482 0.12555,0.3137424 0.12555,0.6454138 0,0.3316703 -0.12555,0.6454128 -0.12259,0.3107545 -0.37072,0.5587605 l -0.86397,0.860552 q -0.22123,0.224101 -0.51121,0.349598 -0.47832,0.215138 -0.99552,0.122509 -0.24813,-0.04183 -0.48132,-0.158365 -0.23317,-0.119521 -0.4275,-0.313742 -0.26009,-0.259958 -0.38865,-0.60657 l 0.23319,-0.233065 q 0.16444,-0.164342 0.40659,-0.19721 0.0507,0.304778 0.26607,0.522904 0.16441,0.161354 0.37368,0.230078 0.20927,0.06574 0.42153,0.04482 0.15845,-0.01793 0.31092,-0.08366 0.15246,-0.06872 0.27503,-0.191233 l 0.86098,-0.8635396 q 0.19134,-0.1882465 0.25411,-0.4362522 0.0628,-0.2509937 -0.004,-0.4989994 -0.0628,-0.250995 -0.25113,-0.4422279 -0.18834,-0.1912342 -0.43946,-0.2539817 -0.24812,-0.062748 -0.49925,0 -0.24813,0.062748 -0.43947,0.2539817 l -0.52315,0.5199165 v -0.012 q -0.0838,-0.020916 -0.16742,-0.035856 -0.41555,-0.0747 -0.8281,0.026892 0.0658,-0.080675 0.13751,-0.1553772 l 0.86099,-0.8605508 q 0.25138,-0.2509948 0.56228,-0.3735031 0.31391,-0.1254975 0.64575,-0.1254975 0.33184,0 0.64274,0.1254975 0.31392,0.1225083 0.56502,0.3735031 z m -1.72497,4.1384143 -0.86099,0.863539 q -0.24812,0.248006 -0.56202,0.373503 -0.3139,0.125497 -0.64574,0.125497 -0.33185,0 -0.64575,-0.125497 -0.31091,-0.125497 -0.56204,-0.373503 -0.24812,-0.250994 -0.37368,-0.561749 -0.12556,-0.313742 -0.12556,-0.645413 0,-0.334659 0.12556,-0.645413 0.12556,-0.313743 0.37368,-0.561749 l 0.86399,-0.8635388 q 0.22123,-0.2211139 0.51121,-0.3495993 0.48131,-0.2151379 0.99252,-0.1225095 0.25112,0.044819 0.48132,0.1643424 0.23318,0.1165311 0.4275,0.3077664 0.2601,0.2629456 0.38865,0.6095568 l -0.23319,0.233066 q -0.16143,0.161353 -0.40657,0.194221 -0.0508,-0.30179 -0.26609,-0.519916 Q 9.444697,10.026893 9.232427,9.958168 9.023147,9.889444 8.813897,9.913347 8.652457,9.931274 8.499997,10 q -0.14948,0.06574 -0.27504,0.188246 l -0.86099,0.863539 q -0.19134,0.188245 -0.25411,0.439239 -0.0628,0.248006 0,0.499 0.0628,0.248007 0.25411,0.43924 0.19134,0.191234 0.43946,0.253982 0.25113,0.06275 0.49926,0 0.25111,-0.06275 0.43946,-0.253982 l 0.51421,-0.510952 q 0.0867,0.0239 0.17637,0.03884 v 0 q 0.42152,0.07171 0.8311,-0.02988 -0.0628,0.08366 -0.14052,0.158366 z"
       id="text36-9"
       style="fill:#0000ff;stroke-width:1"
       aria-label="🔗" /></g></svg>
