<?xml version="1.0" encoding="UTF-8" standalone="no"?>
<!-- Created with Inkscape (http://www.inkscape.org/) -->

<svg
   width="16"
   height="16"
   viewBox="0 0 16 16"
   version="1.1"
   id="svg1"
   inkscape:version="1.4.3 (0d15f75, 2025-12-25)"
   sodipodi:docname="icon_16.svg"
   xml:space="preserve"
   inkscape:export-filename="icon_16.png"
   inkscape:export-xdpi="1536"
   inkscape:export-ydpi="1536"
   xmlns:inkscape="http://www.inkscape.org/namespaces/inkscape"
   xmlns:sodipodi="http://sodipodi.sourceforge.net/DTD/sodipodi-0.dtd"
   xmlns="http://www.w3.org/2000/svg"
   xmlns:svg="http://www.w3.org/2000/svg"><sodipodi:namedview
     id="namedview1"
     pagecolor="#ffffff"
     bordercolor="#000000"
     borderopacity="0.25"
     inkscape:showpageshadow="2"
     inkscape:pageopacity="0.0"
     inkscape:pagecheckerboard="0"
     inkscape:deskcolor="#d1d1d1"
     inkscape:document-units="px"
     inkscape:zoom="32"
     inkscape:cx="15.390625"
     inkscape:cy="11.5625"
     inkscape:window-width="1920"
     inkscape:window-height="1010"
     inkscape:window-x="-6"
     inkscape:window-y="-6"
     inkscape:window-maximized="1"
     inkscape:current-layer="layer1"
     showgrid="true"><inkscape:grid
       id="grid1"
       units="px"
       originx="0"
       originy="0"
       spacingx="0.5"
       spacingy="0.5"
       empcolor="#0099e5"
       empopacity="0.60392157"
       color="#0099e5"
       opacity="0.14901961"
       empspacing="2"
       dotted="false"
       gridanglex="30"
       gridanglez="30"
       visible="true" /></sodipodi:namedview><defs
     id="defs1" /><g
     inkscape:label="Layer 1"
     inkscape:groupmode="layer"
     id="layer1"><path
       style="fill:#cccccc;fill-opacity:1;stroke:#000000;stroke-width:1.00157;stroke-opacity:1"
       d="m 1.500785,14.000785 v -8.5 c 0.682028,-0.6586059 1.329616,-1.3296163 2,-2 h 4 l 2,2 h 3 v 2.01301"
       id="path2317"
       sodipodi:nodetypes="ccccccc" /><path
       style="fill:#fff6d5;fill-opacity:1;stroke:#000000;stroke-width:1;stroke-linecap:butt;stroke-linejoin:bevel;stroke-miterlimit:0.7;stroke-dasharray:none;stroke-opacity:1"
       d="m 1.5341601,13.500785 3.9666249,-6 h 10 l -4,6 z"
       id="path19"
       sodipodi:nodetypes="ccccc" /><path
       d="m 12.519598,8.5533125 q 0.20926,0.2066729 0.31142,0.4681243 0.10462,0.2614525 0.10462,0.5378459 0,0.2763925 -0.10462,0.5378453 -0.10213,0.258963 -0.30894,0.465635 l -0.71998,0.717126 q -0.18435,0.186752 -0.426,0.291333 -0.3986,0.179282 -0.8296,0.102088 -0.20678,-0.03486 -0.4011,-0.131972 -0.1943099,-0.0996 -0.3562499,-0.261452 -0.21675,-0.216632 -0.32388,-0.505475 l 0.19433,-0.194222 q 0.13702,-0.136952 0.33882,-0.164342 0.0423,0.253983 0.2217299,0.435754 0.137,0.134462 0.3114,0.191732 0.17439,0.05478 0.35128,0.03735 0.13203,-0.01494 0.2591,-0.06972 0.12705,-0.05727 0.22918,-0.159361 l 0.71749,-0.719614 q 0.15945,-0.1568725 0.21175,-0.3635443 0.0524,-0.2091619 -0.004,-0.4158337 -0.0524,-0.2091629 -0.20927,-0.3685238 -0.15695,-0.1593623 -0.36623,-0.2116518 -0.20676,-0.05229 -0.41604,0 -0.20677,0.05229 -0.36622,0.2116518 l -0.43597,0.4332646 v -0.01 q -0.0699,-0.01743 -0.13951,-0.02988 -0.34629,-0.06225 -0.6900899,0.02241 0.0549,-0.067229 0.11463,-0.1294811 l 0.7174899,-0.717127 q 0.20949,-0.2091628 0.46856,-0.3112532 0.2616,-0.1045814 0.53813,-0.1045814 0.27654,0 0.53562,0.1045814 0.2616,0.1020901 0.47085,0.3112532 z m -1.43747,3.4486835 -0.71751,0.719618 q -0.20676,0.206673 -0.4683499,0.311253 -0.26157,0.104575 -0.53811,0.104575 -0.27654,0 -0.53813,-0.104575 -0.25909,-0.104575 -0.46836,-0.311253 -0.20678,-0.209162 -0.3114,-0.468125 -0.10463,-0.261453 -0.10463,-0.537845 0,-0.278883 0.10463,-0.537845 0.10462,-0.261453 0.3114,-0.468125 l 0.71999,-0.7196167 q 0.18436,-0.184262 0.42601,-0.2913333 0.40109,-0.179282 0.8270999,-0.1020914 0.20927,0.037349 0.40111,0.1369523 0.19431,0.097109 0.35625,0.2564725 0.21675,0.2191216 0.32387,0.5079646 l -0.19432,0.194222 q -0.13453,0.134461 -0.33882,0.161851 -0.0424,-0.251492 -0.22173,-0.433264 -0.13452,-0.134461 -0.31141,-0.191732 -0.1744,-0.05727 -0.3487699,-0.03735 -0.13454,0.01494 -0.26159,0.07221 -0.1245,0.05478 -0.2292,0.156872 l -0.71749,0.719617 q -0.15945,0.15687 -0.21176,0.366033 -0.0524,0.206671 0,0.415834 0.0524,0.206673 0.21176,0.366033 0.15945,0.159363 0.36621,0.211653 0.20928,0.05229 0.41605,0 0.20927,-0.05229 0.36622,-0.211653 l 0.4285099,-0.425793 q 0.0722,0.01991 0.14698,0.03236 v 0 q 0.35126,0.05976 0.69259,-0.0249 -0.0524,0.06971 -0.11713,0.131972 z"
       id="text36-5"
       style="fill:#0000ff;stroke-width:0.999995"
       aria-label="🔗" /></g></svg>
